PathFileType	4	(X/Y/Z)	/Users/itak/Documents/Research/Walk-IL/dataset/trc/00364_00011.trc
DataRate	CameraRate	NumFrames	NumMarkers	Units	OrigDataRate	OrigDataStartFrame	OrigNumFrames
100.000000	100.000000	4	56	mm	100.000000	76	306
Frame#	Time	RPSI			LPSI			L3			STRN			T10			C7			CLAV			RBAK			LBAK			LSHO			LUPA			LAEL			LAOL			LWTS			LWPS			LFRA			LIFD			LHPS			LHTS			RSHO			RUPA			RAEL			RAOL			RWTS			RWPS			RFRA			RIFD			RHTS			RHPS			RBHD			LFHD			RFHD			LBHD			LHIP			RHIP			RASI			LASI			LKNE			LTHI			LANK			LTIP			LTOE			LMT1			LMT5			LHEE			RKNE			RTHI			RANK			RTIP			RTOE			RMT1			RMT5			RHEE			*53			*54			*55			
		X1	Y1	Z1	X2	Y2	Z2	X3	Y3	Z3	X4	Y4	Z4	X5	Y5	Z5	X6	Y6	Z6	X7	Y7	Z7	X8	Y8	Z8	X9	Y9	Z9	X10	Y10	Z10	X11	Y11	Z11	X12	Y12	Z12	X13	Y13	Z13	X14	Y14	Z14	X15	Y15	Z15	X16	Y16	Z16	X17	Y17	Z17	X18	Y18	Z18	X19	Y19	Z19	X20	Y20	Z20	X21	Y21	Z21	X22	Y22	Z22	X23	Y23	Z23	X24	Y24	Z24	X25	Y25	Z25	X26	Y26	Z26	X27	Y27	Z27	X28	Y28	Z28	X29	Y29	Z29	X30	Y30	Z30	X31	Y31	Z31	X32	Y32	Z32	X33	Y33	Z33	X34	Y34	Z34	X35	Y35	Z35	X36	Y36	Z36	X37	Y37	Z37	X38	Y38	Z38	X39	Y39	Z39	X40	Y40	Z40	X41	Y41	Z41	X42	Y42	Z42	X43	Y43	Z43	X44	Y44	Z44	X45	Y45	Z45	X46	Y46	Z46	X47	Y47	Z47	X48	Y48	Z48	X49	Y49	Z49	X50	Y50	Z50	X51	Y51	Z51	X52	Y52	Z52	X53	Y53	Z53	X54	Y54	Z54	X55	Y55	Z55	X56	Y56	Z56	

77	0.76	-119.4131774902344	968.6322631835938	729.4922485351562	-209.4379119873047	958.2303466796875	635.260009765625	-162.9500579833984	1027.972045898438	682.9493408203125	-4.53950023651123	1209.039672851562	514.590087890625	-182.0947723388672	1146.1083984375	676.9376831054688	-166.0990600585938	1392.257934570312	629.0859375	-42.32942962646484	1334.885131835938	536.5687866210938	-157.1416473388672	1254.469848632812	714.467041015625	-240.031494140625	1352.61083984375	559.103271484375	-209.7350311279297	1367.092163085938	460.6834411621094	-259.2940063476562	1242.759643554688	423.2271423339844	-241.9982452392578	1039.347534179688	408.3503723144531	-250.4942474365234	1027.689331054688	492.2943115234375	-151.1157379150391	787.2406616210938	395.3209228515625	-217.0466156005859	785.0523071289062	373.7733459472656	-235.85400390625	936.4678955078125	397.1090087890625	-175.4765625	625.5557861328125	402.8269958496094	-227.9454193115234	716.6432495117188	383.5335083007812	-163.8881530761719	708.9592895507812	381.490234375	-19.04712867736816	1383.327758789062	719.4146728515625	11.90692901611328	1324.209838867188	779.4404907226562	37.56541061401367	1062.732177734375	837.9866333007812	-39.629150390625	1047.558227539062	783.1998901367188	113.6448211669922	824.0169067382812	777.91015625	112.3599319458008	820.788330078125	854.728271484375	63.62218856811523	995.8436889648438	843.237548828125	127.6074600219727	652.4208984375	809.8843994140625	143.0315704345703	723.3895263671875	793.5646362304688	124.2661437988281	736.916015625	859.2776489257812	-47.74466705322266	1602.444458007812	644.53955078125	-52.34982681274414	1595.731079101562	435.7503356933594	26.08674240112305	1600.028076171875	499.5344848632812	-174.6435852050781	1594.306640625	576.2264404296875	-214.5313873291016	897.373046875	501.4016723632812	16.23623275756836	923.1318969726562	754.0234375	61.9072265625	951.9534912109375	650.286865234375	-88.26891326904297	930.560302734375	464.8757629394531	-72.20546722412109	458.0085144042969	425.5303344726562	-103.8218765258789	586.5528564453125	433.1614685058594	-302.4335327148438	214.3368072509766	694.6060180664062	-192.9829559326172	314.3836669921875	553.5164794921875	-178.0711669921875	48.92620086669922	663.1319580078125	-191.2513122558594	93.53798675537109	727.4264526367188	-263.9357604980469	108.7259979248047	640.2059936523438	-271.3677978515625	240.1253356933594	758.174560546875	85.27507019042969	461.6127014160156	696.4471435546875	93.49836730957031	722.6100463867188	704.6182861328125	16.02617835998535	49.71603393554688	766.8687744140625	84.39952087402344	340.5970764160156	693.036376953125	132.6892395019531	40.97675323486328	603.2283325195312	61.96813583374023	37.90808486938477	606.4052734375	103.3841323852539	34.35939407348633	718.2594604492188	-53.06194305419922	54.20605850219727	760.5720825195312	nan	nan	nan	nan	nan	nan	nan	nan	nan	
78	0.77	-110.8249359130859	969.4693603515625	725.2915649414062	-201.6374969482422	959.537109375	631.9390869140625	-154.1322784423828	1028.870361328125	679.2747192382812	2.015147686004639	1210.36572265625	508.3077697753906	-172.3790435791016	1147.216186523438	674.2238159179688	-156.9174346923828	1393.529541015625	625.7804565429688	-35.56296157836914	1336.113647460938	530.7434692382812	-145.9776306152344	1256.124877929688	711.5811767578125	-232.3977661132812	1353.834228515625	557.7540893554688	-204.5708160400391	1368.194458007812	458.6846923828125	-256.3388061523438	1244.253051757812	423.1549682617188	-242.2272644042969	1040.682739257812	408.5166015625	-247.2445526123047	1029.417602539062	492.8526000976562	-154.7084808349609	787.6156616210938	392.1375122070312	-221.56591796875	786.0621948242188	373.6079406738281	-237.7742614746094	937.7159423828125	397.3038024902344	-180.6216278076172	626.230712890625	401.0733337402344	-232.7732849121094	717.8349609375	383.937744140625	-169.0033874511719	709.3742065429688	379.1360168457031	-8.046480178833008	1385.2705078125	712.6826171875	24.67016983032227	1326.544799804688	772.0899658203125	55.07427597045898	1065.63623046875	830.8994750976562	-24.05183029174805	1049.497680664062	779.121337890625	131.4850463867188	827.8450317382812	768.0377197265625	133.1010437011719	824.424072265625	844.860107421875	81.89809417724609	998.908935546875	835.2813720703125	148.7872161865234	656.2846069335938	799.1129150390625	162.7466125488281	727.58740234375	782.3702392578125	146.2458648681641	740.7249755859375	848.729736328125	-38.85737991333008	1603.762329101562	638.1323852539062	-46.57297134399414	1596.439453125	429.4610595703125	32.82545852661133	1600.9462890625	492.03857421875	-166.7183685302734	1595.424682617188	571.8016357421875	-208.0825042724609	899.817138671875	497.6599426269531	24.67576026916504	923.0176391601562	749.1329345703125	70.28758239746094	952.0053100585938	645.3300170898438	-81.6771240234375	932.5045776367188	461.2202453613281	-61.77793884277344	461.902099609375	414.1637878417969	-95.27684783935547	590.5136108398438	423.875	-279.7907104492188	207.3240509033203	685.794677734375	-176.1725921630859	313.3262329101562	543.4464721679688	-147.2409210205078	50.4002571105957	647.1674194335938	-161.5001831054688	91.95240783691406	713.2169799804688	-236.9439392089844	105.482666015625	627.85546875	-248.5036773681641	233.4496002197266	749.1168823242188	87.79496765136719	461.0758361816406	694.324951171875	99.62570953369141	721.9171142578125	699.5906982421875	16.01464080810547	50.10210037231445	766.70947265625	86.04584503173828	340.2106018066406	691.603759765625	132.7486877441406	40.88695526123047	603.1123657226562	61.92524337768555	37.78130722045898	606.2887573242188	103.3960876464844	34.4912223815918	718.0724487304688	-53.09840393066406	54.64055252075195	760.3635864257812	nan	nan	nan	nan	nan	nan	nan	nan	nan	
79	0.78	-102.438850402832	970.1673583984375	720.9734497070312	-193.9906921386719	960.6690673828125	628.472900390625	-145.5581817626953	1029.597045898438	675.4323120117188	8.521249771118164	1211.510375976562	502.0403747558594	-162.7812347412109	1148.131469726562	671.326416015625	-147.8571929931641	1394.613037109375	622.3841552734375	-28.86779594421387	1337.170166015625	524.88671875	-134.9461975097656	1257.564331054688	708.5090942382812	-224.7346496582031	1354.898559570312	556.251953125	-199.34814453125	1369.128540039062	456.6587219238281	-253.3774108886719	1245.671508789062	423.1203918457031	-242.6440124511719	1041.972412109375	408.7318420410156	-244.2608337402344	1031.01611328125	493.3201293945312	-158.2795257568359	788.1554565429688	388.8998718261719	-225.9557342529297	787.01318359375	373.4792175292969	-239.8260803222656	938.8811645507812	397.5379333496094	-184.9277191162109	627.0338745117188	399.1866455078125	-237.1236267089844	718.9134521484375	384.370849609375	-173.7668609619141	709.9771118164062	376.6905517578125	2.723063468933105	1387.00439453125	705.9042358398438	37.14914321899414	1328.68115234375	764.652099609375	72.41549682617188	1068.426635742188	823.623046875	-8.42385196685791	1051.278686523438	774.8990478515625	149.2794342041016	831.6223754882812	758.0249633789062	153.7240600585938	828.0394897460938	834.7437744140625	100.0406875610352	1001.909729003906	827.1366577148438	169.9588928222656	660.1832275390625	788.05224609375	182.4038696289062	731.782958984375	770.98681640625	168.1266326904297	744.5389404296875	837.8719482421875	-30.11337661743164	1604.90771484375	631.69921875	-40.90441513061523	1596.988403320312	423.1880493164062	39.42335510253906	1601.7119140625	484.5499877929688	-158.9156494140625	1596.349243164062	567.3358154296875	-201.7007446289062	902.0655517578125	493.8200988769531	32.93807983398438	922.822021484375	744.1609497070312	78.51046752929688	951.9119262695312	640.314453125	-75.01169586181641	934.2759399414062	457.3375549316406	-51.94623565673828	465.6368713378906	402.9490356445312	-87.25479125976562	594.3124389648438	414.7669677734375	-256.9066162109375	199.4505920410156	676.1072998046875	-159.6000823974609	311.732177734375	532.9542846679688	-116.9651031494141	51.6317253112793	629.56396484375	-131.9142761230469	89.8997802734375	697.4125366210938	-210.1641998291016	101.8804626464844	614.2161254882812	-225.3384399414062	225.6891632080078	739.2257080078125	90.34571838378906	460.5595092773438	692.3330688476562	105.6880950927734	721.2294921875	694.59716796875	16.03518486022949	50.48183059692383	766.5763549804688	87.6993408203125	339.8357849121094	690.2409057617188	132.800537109375	40.80442810058594	603.0100708007812	61.88803863525391	37.66046524047852	606.1873779296875	103.407958984375	34.60357666015625	717.9060668945312	-53.10013961791992	55.08917999267578	760.1915283203125	nan	nan	nan	nan	nan	nan	nan	nan	nan	
80	0.79	-94.19227600097656	970.7218017578125	716.572265625	-186.4630279541016	961.62841796875	624.9122924804688	-137.2027435302734	1030.161010742188	671.4869995117188	14.97942543029785	1212.441528320312	495.7858276367188	-153.2985076904297	1148.865844726562	668.2664794921875	-138.9267272949219	1395.498291015625	618.8801879882812	-22.2163200378418	1338.034423828125	518.9890747070312	-124.0541839599609	1258.774291992188	705.2418212890625	-217.0496215820312	1355.790161132812	554.5746459960938	-194.0537567138672	1369.866943359375	454.5711669921875	-250.3596496582031	1246.983276367188	423.0857238769531	-243.1697845458984	1043.194213867188	408.9814453125	-241.5244445800781	1032.4599609375	493.6869506835938	-161.8058471679688	788.8009033203125	385.6351013183594	-230.1692962646484	787.8800659179688	373.3629150390625	-241.9372253417969	939.9434204101562	397.798095703125	-188.4831390380859	627.89111328125	397.1339111328125	-241.005859375	719.8466186523438	384.7853393554688	-178.1988983154297	710.70361328125	374.1554260253906	13.26299095153809	1388.507934570312	699.0782470703125	49.33462142944336	1330.591064453125	757.1397094726562	89.56653594970703	1071.079711914062	816.1639404296875	7.242305278778076	1052.883422851562	770.5225219726562	167.0167694091797	835.3224487304688	747.8670043945312	174.1991271972656	831.61474609375	824.3935546875	118.0289840698242	1004.823486328125	818.8151245117188	191.1007080078125	664.1085815429688	776.728271484375	201.9833679199219	735.9503173828125	759.427978515625	189.8687133789062	748.3378295898438	826.7405395507812	-21.50557518005371	1605.856811523438	625.2542724609375	-35.32551193237305	1597.380737304688	416.9415283203125	45.89265441894531	1602.3212890625	477.0837097167969	-151.2266235351562	1597.061889648438	562.8291625976562	-195.3857421875	904.0868530273438	489.9310607910156	41.06841278076172	922.5505981445312	739.0858154296875	86.57416534423828	951.66943359375	635.1896362304688	-68.38469696044922	935.8246459960938	453.2872009277344	-42.6391716003418	469.1659545898438	391.9309692382812	-79.6884765625	597.8897094726562	405.8559875488281	-233.8239135742188	190.8201141357422	665.4501342773438	-143.2488250732422	309.62890625	522.022216796875	-87.51161193847656	52.61674118041992	610.2994995117188	-102.6741104125977	87.41356658935547	679.9458618164062	-183.7821960449219	98.00173950195312	599.2315673828125	-201.8624725341797	216.9088439941406	728.4148559570312	92.96320343017578	460.0418395996094	690.4512329101562	111.7040863037109	720.5430908203125	689.642578125	16.08315467834473	50.84278869628906	766.4696655273438	89.37934875488281	339.4409790039062	688.9091796875	132.840576171875	40.72611236572266	602.9205932617188	61.85785675048828	37.54515838623047	606.0972900390625	103.4188842773438	34.69364166259766	717.7667846679688	-53.06697082519531	55.53616714477539	760.0641479492188	nan	nan	nan	nan	nan	nan	nan	nan	nan	
